<svg version="1" xmlns="http://www.w3.org/2000/svg" width="800" height="800" viewBox="0 0 600.000000 600.000000"><path d="M95.5 183.8c-1.6.1-5.6.7-8.9 1.3-5.4 1-7.3 1.7-11.6 4.1-.8.4-2.6 1.3-3.9 1.8-4.1 1.8-15.4 14.2-18.3 20-5.8 11.8-5.8 10.7-5.8 91.8 0 82.2 0 81.8 6.3 93.5 6.5 12.3 21.1 23.2 34.2 25.6 7.1 1.3 77.8 1.2 81.8-.2 10.2-3.3 12.9-4.6 20.2-9.6 4.4-3 8.2-5.7 8.5-6 .3-.4 4-3.1 8.3-6.1 7.9-5.6 29.5-21.1 33.8-24.3 1.3-.9 12.5-9 24.9-17.9 33-23.7 75-53.9 104-74.8 14-10.1 35.8-25.8 48.5-34.8l23-16.5h30.6c16.8 0 31.1.3 31.7.7.8.4 1.1 21 1.1 71.1 0 65.5-.1 70.4-1.7 70.9-.9.3-28.7.5-61.7.5h-64.6c-4 .1-5.7 1-14.5 7.1-5.4 3.9-10.6 7.6-11.4 8.3-.8.7-4.4 3.3-8 5.7-3.6 2.5-7 4.9-7.6 5.5-.6.5-3.7 2.8-6.8 5-3.1 2.2-7.2 5.1-9 6.5-1.9 1.4-4.4 3.2-5.6 4-1.2.8-3.5 2.5-5.2 3.7l-3 2.2h101.4c88.1 0 102.2-.2 107.4-1.5 20.2-5.3 35-21.7 38.1-42.4.9-6.3.3-149.9-.6-155-2.6-13.4-13-27.5-25.1-33.9-11-5.9-15-6.4-53-6.5-19-.1-36.7.3-39.5.7-5.4.8-14.5 4.1-18.5 6.6-2.3 1.5-41.1 29.3-91.5 65.6-30.6 22-59.9 43.1-66.7 47.9-3.2 2.3-25.4 18.3-49.5 35.6-24 17.3-44.9 32.2-46.3 33.1-2.3 1.5-6.7 1.7-33.3 1.7-22.1 0-30.9-.3-31.5-1.1-1.1-1.4-1-140.2 0-141.3.5-.4 30.4-.8 66.5-.8l65.8-.1 4-3.1c2.2-1.7 16.2-11.8 31-22.4 14.9-10.6 27.8-20 28.7-20.9 1.6-1.5-6.2-1.6-96-1.6-53.7 0-99 .1-100.7.3z"/></svg>